<svg width="2200" height="175" viewBox="0 0 2200 175" fill="none" xmlns="http://www.w3.org/2000/svg">
<line x1="9.5" y1="47" x2="9.5" y2="139" stroke="black"/>
<line x1="22.5" y1="87" x2="22.5" y2="97" stroke="black"/>
<line x1="35.5" y1="87" x2="35.5" y2="97" stroke="black"/>
<line x1="48.5" y1="87" x2="48.5" y2="97" stroke="black"/>
<line x1="61.5" y1="87" x2="61.5" y2="97" stroke="black"/>
<line x1="74.5" y1="69" x2="74.5" y2="115" stroke="black"/>
<line x1="87.5" y1="87" x2="87.5" y2="97" stroke="black"/>
<line x1="100.5" y1="87" x2="100.5" y2="97" stroke="black"/>
<line x1="113.5" y1="87" x2="113.5" y2="97" stroke="black"/>
<line x1="126.5" y1="87" x2="126.5" y2="97" stroke="black"/>
<path d="M8.5793 23.4434C8.5793 24.2181 8.39049 24.8952 8.01289 25.4746C7.6418 26.0475 7.14375 26.4609 6.51875 26.7148C7.2349 26.9883 7.80781 27.4375 8.2375 28.0625C8.6737 28.681 8.8918 29.4036 8.8918 30.2305C8.8918 31.513 8.54023 32.4961 7.83711 33.1797C7.13398 33.8633 6.22253 34.2051 5.10273 34.2051C3.96341 34.2051 3.04219 33.8633 2.33906 33.1797C1.63594 32.4961 1.28438 31.513 1.28438 30.2305C1.28438 29.3971 1.49596 28.6712 1.91914 28.0527C2.34883 27.4277 2.925 26.9818 3.64766 26.7148C3.01615 26.4544 2.5181 26.0378 2.15352 25.4648C1.79544 24.8919 1.61641 24.2181 1.61641 23.4434C1.61641 22.2194 1.93542 21.2689 2.57344 20.5918C3.21797 19.9147 4.05456 19.5762 5.0832 19.5762C6.09883 19.5762 6.93542 19.918 7.59297 20.6016C8.25052 21.2786 8.5793 22.2259 8.5793 23.4434ZM7.71992 30.2305C7.71992 29.3385 7.46927 28.6159 6.96797 28.0625C6.46667 27.5026 5.83841 27.2227 5.0832 27.2227C4.31497 27.2227 3.68672 27.5026 3.19844 28.0625C2.71016 28.6159 2.46602 29.3385 2.46602 30.2305C2.46602 31.1549 2.7069 31.8809 3.18867 32.4082C3.67044 32.929 4.30846 33.1895 5.10273 33.1895C5.86445 33.1895 6.48945 32.929 6.97773 32.4082C7.47253 31.8809 7.71992 31.1549 7.71992 30.2305ZM7.38789 23.4434C7.38789 22.623 7.16654 21.946 6.72383 21.4121C6.28763 20.8783 5.74076 20.6113 5.0832 20.6113C4.40612 20.6113 3.85599 20.8685 3.43281 21.3828C3.00964 21.8971 2.79805 22.584 2.79805 23.4434C2.79805 24.2832 3.00964 24.9538 3.43281 25.4551C3.8625 25.9499 4.41914 26.1973 5.10273 26.1973C5.7668 26.1973 6.31367 25.9466 6.74336 25.4453C7.17305 24.944 7.38789 24.2767 7.38789 23.4434ZM18.3934 23.4434C18.3934 24.2181 18.2046 24.8952 17.827 25.4746C17.4559 26.0475 16.9578 26.4609 16.3328 26.7148C17.049 26.9883 17.6219 27.4375 18.0516 28.0625C18.4878 28.681 18.7059 29.4036 18.7059 30.2305C18.7059 31.513 18.3543 32.4961 17.6512 33.1797C16.948 33.8633 16.0366 34.2051 14.9168 34.2051C13.7775 34.2051 12.8562 33.8633 12.1531 33.1797C11.45 32.4961 11.0984 31.513 11.0984 30.2305C11.0984 29.3971 11.31 28.6712 11.7332 28.0527C12.1629 27.4277 12.7391 26.9818 13.4617 26.7148C12.8302 26.4544 12.3322 26.0378 11.9676 25.4648C11.6095 24.8919 11.4305 24.2181 11.4305 23.4434C11.4305 22.2194 11.7495 21.2689 12.3875 20.5918C13.032 19.9147 13.8686 19.5762 14.8973 19.5762C15.9129 19.5762 16.7495 19.918 17.407 20.6016C18.0646 21.2786 18.3934 22.2259 18.3934 23.4434ZM17.534 30.2305C17.534 29.3385 17.2833 28.6159 16.782 28.0625C16.2807 27.5026 15.6525 27.2227 14.8973 27.2227C14.129 27.2227 13.5008 27.5026 13.0125 28.0625C12.5242 28.6159 12.2801 29.3385 12.2801 30.2305C12.2801 31.1549 12.521 31.8809 13.0027 32.4082C13.4845 32.929 14.1225 33.1895 14.9168 33.1895C15.6785 33.1895 16.3035 32.929 16.7918 32.4082C17.2866 31.8809 17.534 31.1549 17.534 30.2305ZM17.202 23.4434C17.202 22.623 16.9806 21.946 16.5379 21.4121C16.1017 20.8783 15.5548 20.6113 14.8973 20.6113C14.2202 20.6113 13.6701 20.8685 13.2469 21.3828C12.8237 21.8971 12.6121 22.584 12.6121 23.4434C12.6121 24.2832 12.8237 24.9538 13.2469 25.4551C13.6766 25.9499 14.2332 26.1973 14.9168 26.1973C15.5809 26.1973 16.1277 25.9466 16.5574 25.4453C16.9871 24.944 17.202 24.2767 17.202 23.4434Z" fill="black"/>
<line x1="139.5" y1="47" x2="139.5" y2="140" stroke="black"/>
<path d="M134.536 33.1895C135.389 33.1895 136.07 32.8281 136.577 32.1055C137.092 31.3828 137.349 30.3509 137.349 29.0098V27.7305C137.069 28.2969 136.701 28.7331 136.245 29.0391C135.79 29.3385 135.285 29.4883 134.732 29.4883C133.638 29.4883 132.759 29.0423 132.095 28.1504C131.437 27.252 131.109 26.0833 131.109 24.6445C131.109 23.2122 131.457 22.0111 132.154 21.041C132.85 20.0645 133.706 19.5762 134.722 19.5762C135.887 19.5762 136.815 20.0254 137.505 20.9238C138.202 21.8223 138.55 23.1243 138.55 24.8301V28.9902C138.55 30.6439 138.179 31.9264 137.437 32.8379C136.695 33.7493 135.728 34.2051 134.536 34.2051C134.133 34.2051 133.716 34.153 133.286 34.0488C132.857 33.9512 132.456 33.8079 132.085 33.6191L132.29 32.6035C132.642 32.8118 132.993 32.9616 133.345 33.0527C133.696 33.1439 134.094 33.1895 134.536 33.1895ZM134.732 28.4727C135.396 28.4727 135.949 28.2643 136.392 27.8477C136.835 27.431 137.154 26.9102 137.349 26.2852V24.7422C137.349 23.3945 137.118 22.3691 136.655 21.666C136.2 20.9629 135.568 20.6113 134.761 20.6113C134.064 20.6113 133.482 21.0052 133.013 21.793C132.544 22.5807 132.31 23.5312 132.31 24.6445C132.31 25.7383 132.528 26.6497 132.964 27.3789C133.4 28.1081 133.989 28.4727 134.732 28.4727ZM148.598 28.4922C148.598 30.3281 148.27 31.7409 147.612 32.7305C146.961 33.7135 146.063 34.2051 144.917 34.2051C143.764 34.2051 142.856 33.7103 142.192 32.7207C141.535 31.7311 141.206 30.3216 141.206 28.4922V25.3086C141.206 23.4857 141.531 22.0762 142.182 21.0801C142.84 20.0775 143.745 19.5762 144.897 19.5762C146.05 19.5762 146.955 20.0742 147.612 21.0703C148.27 22.0664 148.598 23.4792 148.598 25.3086V28.4922ZM147.427 25.1035C147.427 23.6582 147.208 22.5482 146.772 21.7734C146.343 20.9987 145.718 20.6113 144.897 20.6113C144.083 20.6113 143.462 21.002 143.032 21.7832C142.602 22.5579 142.387 23.6647 142.387 25.1035V28.6777C142.387 30.11 142.606 31.2201 143.042 32.0078C143.478 32.7956 144.103 33.1895 144.917 33.1895C145.731 33.1895 146.352 32.7988 146.782 32.0176C147.212 31.2298 147.427 30.1165 147.427 28.6777V25.1035Z" fill="black"/>
<line x1="152.5" y1="87" x2="152.5" y2="97" stroke="black"/>
<line x1="165.5" y1="87" x2="165.5" y2="97" stroke="black"/>
<line x1="178.5" y1="87" x2="178.5" y2="97" stroke="black"/>
<line x1="191.5" y1="87" x2="191.5" y2="97" stroke="black"/>
<line x1="204.5" y1="69" x2="204.5" y2="115" stroke="black"/>
<line x1="217.5" y1="87" x2="217.5" y2="97" stroke="black"/>
<line x1="230.5" y1="87" x2="230.5" y2="97" stroke="black"/>
<line x1="243.5" y1="87" x2="243.5" y2="97" stroke="black"/>
<line x1="256.5" y1="87" x2="256.5" y2="97" stroke="black"/>
<line x1="269.5" y1="47" x2="269.5" y2="139" stroke="black"/>
<path d="M264.605 33.1895C265.458 33.1895 266.138 32.8281 266.646 32.1055C267.16 31.3828 267.417 30.3509 267.417 29.0098V27.7305C267.137 28.2969 266.769 28.7331 266.314 29.0391C265.858 29.3385 265.353 29.4883 264.8 29.4883C263.706 29.4883 262.827 29.0423 262.163 28.1504C261.506 27.252 261.177 26.0833 261.177 24.6445C261.177 23.2122 261.525 22.0111 262.222 21.041C262.918 20.0645 263.775 19.5762 264.79 19.5762C265.956 19.5762 266.883 20.0254 267.573 20.9238C268.27 21.8223 268.618 23.1243 268.618 24.8301V28.9902C268.618 30.6439 268.247 31.9264 267.505 32.8379C266.763 33.7493 265.796 34.2051 264.605 34.2051C264.201 34.2051 263.784 34.153 263.355 34.0488C262.925 33.9512 262.525 33.8079 262.154 33.6191L262.359 32.6035C262.71 32.8118 263.062 32.9616 263.413 33.0527C263.765 33.1439 264.162 33.1895 264.605 33.1895ZM264.8 28.4727C265.464 28.4727 266.017 28.2643 266.46 27.8477C266.903 27.431 267.222 26.9102 267.417 26.2852V24.7422C267.417 23.3945 267.186 22.3691 266.724 21.666C266.268 20.9629 265.637 20.6113 264.829 20.6113C264.133 20.6113 263.55 21.0052 263.081 21.793C262.613 22.5807 262.378 23.5312 262.378 24.6445C262.378 25.7383 262.596 26.6497 263.032 27.3789C263.469 28.1081 264.058 28.4727 264.8 28.4727ZM278.774 34H271.343V33.082L275.2 27.8086C275.903 26.8451 276.395 26.041 276.675 25.3965C276.961 24.7454 277.104 24.1172 277.104 23.5117C277.104 22.6393 276.906 21.9395 276.509 21.4121C276.118 20.8783 275.578 20.6113 274.887 20.6113C274.022 20.6113 273.367 20.9076 272.925 21.5C272.488 22.0859 272.27 22.8802 272.27 23.8828H271.167L271.147 23.834C271.121 22.6361 271.443 21.627 272.114 20.8066C272.791 19.9863 273.716 19.5762 274.887 19.5762C275.916 19.5762 276.736 19.931 277.348 20.6406C277.967 21.3438 278.276 22.2878 278.276 23.4727C278.276 24.2604 278.074 25.0612 277.671 25.875C277.274 26.6823 276.72 27.5677 276.011 28.5312L272.768 32.9844H278.774V34Z" fill="black"/>
<line x1="282.5" y1="87" x2="282.5" y2="97" stroke="black"/>
<line x1="295.5" y1="87" x2="295.5" y2="97" stroke="black"/>
<line x1="308.5" y1="87" x2="308.5" y2="97" stroke="black"/>
<line x1="321.5" y1="87" x2="321.5" y2="97" stroke="black"/>
<line x1="334.5" y1="69" x2="334.5" y2="115" stroke="black"/>
<line x1="347.5" y1="87" x2="347.5" y2="97" stroke="black"/>
<line x1="360.5" y1="87" x2="360.5" y2="97" stroke="black"/>
<line x1="373.5" y1="87" x2="373.5" y2="97" stroke="black"/>
<line x1="386.5" y1="87" x2="386.5" y2="97" stroke="black"/>
<line x1="399.5" y1="47" x2="399.5" y2="139" stroke="black"/>
<path d="M394.605 33.1895C395.458 33.1895 396.138 32.8281 396.646 32.1055C397.16 31.3828 397.417 30.3509 397.417 29.0098V27.7305C397.137 28.2969 396.769 28.7331 396.314 29.0391C395.858 29.3385 395.353 29.4883 394.8 29.4883C393.706 29.4883 392.827 29.0423 392.163 28.1504C391.506 27.252 391.177 26.0833 391.177 24.6445C391.177 23.2122 391.525 22.0111 392.222 21.041C392.918 20.0645 393.775 19.5762 394.79 19.5762C395.956 19.5762 396.883 20.0254 397.573 20.9238C398.27 21.8223 398.618 23.1243 398.618 24.8301V28.9902C398.618 30.6439 398.247 31.9264 397.505 32.8379C396.763 33.7493 395.796 34.2051 394.605 34.2051C394.201 34.2051 393.784 34.153 393.355 34.0488C392.925 33.9512 392.525 33.8079 392.154 33.6191L392.359 32.6035C392.71 32.8118 393.062 32.9616 393.413 33.0527C393.765 33.1439 394.162 33.1895 394.605 33.1895ZM394.8 28.4727C395.464 28.4727 396.017 28.2643 396.46 27.8477C396.903 27.431 397.222 26.9102 397.417 26.2852V24.7422C397.417 23.3945 397.186 22.3691 396.724 21.666C396.268 20.9629 395.637 20.6113 394.829 20.6113C394.133 20.6113 393.55 21.0052 393.081 21.793C392.613 22.5807 392.378 23.5312 392.378 24.6445C392.378 25.7383 392.596 26.6497 393.032 27.3789C393.469 28.1081 394.058 28.4727 394.8 28.4727ZM407.427 29.4102H409.194V30.4258H407.427V34H406.264V30.4258H400.805V29.7324L406.167 19.7812H407.427V29.4102ZM402.134 29.4102H406.264V21.5488L406.206 21.5391L405.874 22.3984L402.134 29.4102Z" fill="black"/>
<line x1="412.5" y1="87" x2="412.5" y2="97" stroke="black"/>
<line x1="425.5" y1="87" x2="425.5" y2="97" stroke="black"/>
<line x1="438.5" y1="87" x2="438.5" y2="97" stroke="black"/>
<line x1="451.5" y1="87" x2="451.5" y2="97" stroke="black"/>
<line x1="464.5" y1="69" x2="464.5" y2="115" stroke="black"/>
<line x1="477.5" y1="87" x2="477.5" y2="97" stroke="black"/>
<line x1="490.5" y1="87" x2="490.5" y2="97" stroke="black"/>
<line x1="503.5" y1="87" x2="503.5" y2="97" stroke="black"/>
<line x1="516.5" y1="87" x2="516.5" y2="97" stroke="black"/>
<line x1="529.5" y1="47" x2="529.5" y2="139" stroke="black"/>
<path d="M524.605 33.1895C525.458 33.1895 526.138 32.8281 526.646 32.1055C527.16 31.3828 527.417 30.3509 527.417 29.0098V27.7305C527.137 28.2969 526.769 28.7331 526.314 29.0391C525.858 29.3385 525.353 29.4883 524.8 29.4883C523.706 29.4883 522.827 29.0423 522.163 28.1504C521.506 27.252 521.177 26.0833 521.177 24.6445C521.177 23.2122 521.525 22.0111 522.222 21.041C522.918 20.0645 523.775 19.5762 524.79 19.5762C525.956 19.5762 526.883 20.0254 527.573 20.9238C528.27 21.8223 528.618 23.1243 528.618 24.8301V28.9902C528.618 30.6439 528.247 31.9264 527.505 32.8379C526.763 33.7493 525.796 34.2051 524.605 34.2051C524.201 34.2051 523.784 34.153 523.355 34.0488C522.925 33.9512 522.525 33.8079 522.154 33.6191L522.359 32.6035C522.71 32.8118 523.062 32.9616 523.413 33.0527C523.765 33.1439 524.162 33.1895 524.605 33.1895ZM524.8 28.4727C525.464 28.4727 526.017 28.2643 526.46 27.8477C526.903 27.431 527.222 26.9102 527.417 26.2852V24.7422C527.417 23.3945 527.186 22.3691 526.724 21.666C526.268 20.9629 525.637 20.6113 524.829 20.6113C524.133 20.6113 523.55 21.0052 523.081 21.793C522.613 22.5807 522.378 23.5312 522.378 24.6445C522.378 25.7383 522.596 26.6497 523.032 27.3789C523.469 28.1081 524.058 28.4727 524.8 28.4727ZM535.6 19.5762C536.011 19.5762 536.411 19.6315 536.802 19.7422C537.199 19.8529 537.54 20.0124 537.827 20.2207L537.544 21.1973C537.264 21.002 536.974 20.8555 536.675 20.7578C536.375 20.6602 536.017 20.6113 535.6 20.6113C534.735 20.6113 534.022 21.0215 533.462 21.8418C532.908 22.6556 532.632 23.7266 532.632 25.0547V26.0898C532.97 25.6341 533.38 25.276 533.862 25.0156C534.35 24.7487 534.881 24.6152 535.454 24.6152C536.509 24.6152 537.345 25.0579 537.964 25.9434C538.582 26.8223 538.891 27.9648 538.891 29.3711C538.891 30.7773 538.559 31.9362 537.895 32.8477C537.231 33.7526 536.362 34.2051 535.288 34.2051C534.188 34.2051 533.276 33.7168 532.554 32.7402C531.831 31.7637 531.47 30.4225 531.47 28.7168V25.1719C531.47 23.5182 531.867 22.1738 532.661 21.1387C533.455 20.097 534.435 19.5762 535.6 19.5762ZM535.21 25.5918C534.591 25.5918 534.054 25.7741 533.598 26.1387C533.149 26.4967 532.827 26.9688 532.632 27.5547V28.8047C532.632 30.1589 532.882 31.2298 533.384 32.0176C533.885 32.8053 534.52 33.1992 535.288 33.1992C536.03 33.1992 536.619 32.8281 537.055 32.0859C537.492 31.3438 537.71 30.4388 537.71 29.3711C537.71 28.2448 537.492 27.3333 537.055 26.6367C536.619 25.9401 536.004 25.5918 535.21 25.5918Z" fill="black"/>
<line x1="542.5" y1="87" x2="542.5" y2="97" stroke="black"/>
<line x1="555.5" y1="87" x2="555.5" y2="97" stroke="black"/>
<line x1="568.5" y1="87" x2="568.5" y2="97" stroke="black"/>
<line x1="581.5" y1="87" x2="581.5" y2="97" stroke="black"/>
<line x1="594.5" y1="69" x2="594.5" y2="115" stroke="black"/>
<line x1="607.5" y1="87" x2="607.5" y2="97" stroke="black"/>
<line x1="620.5" y1="87" x2="620.5" y2="97" stroke="black"/>
<line x1="633.5" y1="87" x2="633.5" y2="97" stroke="black"/>
<line x1="646.5" y1="87" x2="646.5" y2="97" stroke="black"/>
<line x1="659.5" y1="47" x2="659.5" y2="139" stroke="black"/>
<path d="M654.605 33.1895C655.458 33.1895 656.138 32.8281 656.646 32.1055C657.16 31.3828 657.417 30.3509 657.417 29.0098V27.7305C657.137 28.2969 656.769 28.7331 656.314 29.0391C655.858 29.3385 655.353 29.4883 654.8 29.4883C653.706 29.4883 652.827 29.0423 652.163 28.1504C651.506 27.252 651.177 26.0833 651.177 24.6445C651.177 23.2122 651.525 22.0111 652.222 21.041C652.918 20.0645 653.775 19.5762 654.79 19.5762C655.956 19.5762 656.883 20.0254 657.573 20.9238C658.27 21.8223 658.618 23.1243 658.618 24.8301V28.9902C658.618 30.6439 658.247 31.9264 657.505 32.8379C656.763 33.7493 655.796 34.2051 654.605 34.2051C654.201 34.2051 653.784 34.153 653.355 34.0488C652.925 33.9512 652.525 33.8079 652.154 33.6191L652.359 32.6035C652.71 32.8118 653.062 32.9616 653.413 33.0527C653.765 33.1439 654.162 33.1895 654.605 33.1895ZM654.8 28.4727C655.464 28.4727 656.017 28.2643 656.46 27.8477C656.903 27.431 657.222 26.9102 657.417 26.2852V24.7422C657.417 23.3945 657.186 22.3691 656.724 21.666C656.268 20.9629 655.637 20.6113 654.829 20.6113C654.133 20.6113 653.55 21.0052 653.081 21.793C652.613 22.5807 652.378 23.5312 652.378 24.6445C652.378 25.7383 652.596 26.6497 653.032 27.3789C653.469 28.1081 654.058 28.4727 654.8 28.4727ZM668.393 23.4434C668.393 24.2181 668.205 24.8952 667.827 25.4746C667.456 26.0475 666.958 26.4609 666.333 26.7148C667.049 26.9883 667.622 27.4375 668.052 28.0625C668.488 28.681 668.706 29.4036 668.706 30.2305C668.706 31.513 668.354 32.4961 667.651 33.1797C666.948 33.8633 666.037 34.2051 664.917 34.2051C663.777 34.2051 662.856 33.8633 662.153 33.1797C661.45 32.4961 661.098 31.513 661.098 30.2305C661.098 29.3971 661.31 28.6712 661.733 28.0527C662.163 27.4277 662.739 26.9818 663.462 26.7148C662.83 26.4544 662.332 26.0378 661.968 25.4648C661.61 24.8919 661.43 24.2181 661.43 23.4434C661.43 22.2194 661.749 21.2689 662.387 20.5918C663.032 19.9147 663.869 19.5762 664.897 19.5762C665.913 19.5762 666.749 19.918 667.407 20.6016C668.065 21.2786 668.393 22.2259 668.393 23.4434ZM667.534 30.2305C667.534 29.3385 667.283 28.6159 666.782 28.0625C666.281 27.5026 665.652 27.2227 664.897 27.2227C664.129 27.2227 663.501 27.5026 663.012 28.0625C662.524 28.6159 662.28 29.3385 662.28 30.2305C662.28 31.1549 662.521 31.8809 663.003 32.4082C663.485 32.929 664.123 33.1895 664.917 33.1895C665.679 33.1895 666.304 32.929 666.792 32.4082C667.287 31.8809 667.534 31.1549 667.534 30.2305ZM667.202 23.4434C667.202 22.623 666.981 21.946 666.538 21.4121C666.102 20.8783 665.555 20.6113 664.897 20.6113C664.22 20.6113 663.67 20.8685 663.247 21.3828C662.824 21.8971 662.612 22.584 662.612 23.4434C662.612 24.2832 662.824 24.9538 663.247 25.4551C663.677 25.9499 664.233 26.1973 664.917 26.1973C665.581 26.1973 666.128 25.9466 666.557 25.4453C666.987 24.944 667.202 24.2767 667.202 23.4434Z" fill="black"/>
<line x1="672.5" y1="87" x2="672.5" y2="97" stroke="black"/>
<line x1="685.5" y1="87" x2="685.5" y2="97" stroke="black"/>
<line x1="698.5" y1="87" x2="698.5" y2="97" stroke="black"/>
<line x1="711.5" y1="87" x2="711.5" y2="97" stroke="black"/>
<line x1="724.5" y1="69" x2="724.5" y2="115" stroke="black"/>
<line x1="737.5" y1="87" x2="737.5" y2="97" stroke="black"/>
<line x1="750.5" y1="87" x2="750.5" y2="97" stroke="black"/>
<line x1="763.5" y1="87" x2="763.5" y2="97" stroke="black"/>
<line x1="776.5" y1="87" x2="776.5" y2="97" stroke="black"/>
<line x1="789.5" y1="47" x2="789.5" y2="139" stroke="black"/>
<path d="M780.977 34.0586H779.805V21.0508L776.885 21.4512V20.6113L780.977 19.752V34.0586ZM793.623 28.4922C793.623 30.3281 793.294 31.7409 792.637 32.7305C791.986 33.7135 791.087 34.2051 789.941 34.2051C788.789 34.2051 787.881 33.7103 787.217 32.7207C786.559 31.7311 786.23 30.3216 786.23 28.4922V25.3086C786.23 23.4857 786.556 22.0762 787.207 21.0801C787.865 20.0775 788.77 19.5762 789.922 19.5762C791.074 19.5762 791.979 20.0742 792.637 21.0703C793.294 22.0664 793.623 23.4792 793.623 25.3086V28.4922ZM792.451 25.1035C792.451 23.6582 792.233 22.5482 791.797 21.7734C791.367 20.9987 790.742 20.6113 789.922 20.6113C789.108 20.6113 788.486 21.002 788.057 21.7832C787.627 22.5579 787.412 23.6647 787.412 25.1035V28.6777C787.412 30.11 787.63 31.2201 788.066 32.0078C788.503 32.7956 789.128 33.1895 789.941 33.1895C790.755 33.1895 791.377 32.7988 791.807 32.0176C792.236 31.2298 792.451 30.1165 792.451 28.6777V25.1035ZM803.574 28.4922C803.574 30.3281 803.245 31.7409 802.587 32.7305C801.936 33.7135 801.038 34.2051 799.892 34.2051C798.74 34.2051 797.832 33.7103 797.168 32.7207C796.51 31.7311 796.181 30.3216 796.181 28.4922V25.3086C796.181 23.4857 796.507 22.0762 797.158 21.0801C797.815 20.0775 798.72 19.5762 799.873 19.5762C801.025 19.5762 801.93 20.0742 802.587 21.0703C803.245 22.0664 803.574 23.4792 803.574 25.3086V28.4922ZM802.402 25.1035C802.402 23.6582 802.184 22.5482 801.748 21.7734C801.318 20.9987 800.693 20.6113 799.873 20.6113C799.059 20.6113 798.437 21.002 798.007 21.7832C797.578 22.5579 797.363 23.6647 797.363 25.1035V28.6777C797.363 30.11 797.581 31.2201 798.017 32.0078C798.453 32.7956 799.078 33.1895 799.892 33.1895C800.706 33.1895 801.328 32.7988 801.757 32.0176C802.187 31.2298 802.402 30.1165 802.402 28.6777V25.1035Z" fill="black"/>
<line x1="797.5" y1="87" x2="797.5" y2="97" stroke="black"/>
<line x1="810.5" y1="87" x2="810.5" y2="97" stroke="black"/>
<line x1="823.5" y1="87" x2="823.5" y2="97" stroke="black"/>
<line x1="836.5" y1="87" x2="836.5" y2="97" stroke="black"/>
<line x1="849.5" y1="69" x2="849.5" y2="115" stroke="black"/>
<line x1="862.5" y1="87" x2="862.5" y2="97" stroke="black"/>
<line x1="875.5" y1="87" x2="875.5" y2="97" stroke="black"/>
<line x1="888.5" y1="87" x2="888.5" y2="97" stroke="black"/>
<line x1="901.5" y1="87" x2="901.5" y2="97" stroke="black"/>
<line x1="919.5" y1="47" x2="919.5" y2="139" stroke="black"/>
<path d="M911.045 34.0586H909.873V21.0508L906.954 21.4512V20.6113L911.045 19.752V34.0586ZM923.691 28.4922C923.691 30.3281 923.363 31.7409 922.705 32.7305C922.054 33.7135 921.156 34.2051 920.01 34.2051C918.857 34.2051 917.949 33.7103 917.285 32.7207C916.628 31.7311 916.299 30.3216 916.299 28.4922V25.3086C916.299 23.4857 916.624 22.0762 917.275 21.0801C917.933 20.0775 918.838 19.5762 919.99 19.5762C921.143 19.5762 922.048 20.0742 922.705 21.0703C923.363 22.0664 923.691 23.4792 923.691 25.3086V28.4922ZM922.52 25.1035C922.52 23.6582 922.301 22.5482 921.865 21.7734C921.436 20.9987 920.811 20.6113 919.99 20.6113C919.176 20.6113 918.555 21.002 918.125 21.7832C917.695 22.5579 917.48 23.6647 917.48 25.1035V28.6777C917.48 30.11 917.699 31.2201 918.135 32.0078C918.571 32.7956 919.196 33.1895 920.01 33.1895C920.824 33.1895 921.445 32.7988 921.875 32.0176C922.305 31.2298 922.52 30.1165 922.52 28.6777V25.1035ZM933.75 34H926.318V33.082L930.175 27.8086C930.879 26.8451 931.37 26.041 931.65 25.3965C931.936 24.7454 932.08 24.1172 932.08 23.5117C932.08 22.6393 931.881 21.9395 931.484 21.4121C931.093 20.8783 930.553 20.6113 929.863 20.6113C928.997 20.6113 928.343 20.9076 927.9 21.5C927.464 22.0859 927.246 22.8802 927.246 23.8828H926.142L926.123 23.834C926.097 22.6361 926.419 21.627 927.089 20.8066C927.767 19.9863 928.691 19.5762 929.863 19.5762C930.892 19.5762 931.712 19.931 932.324 20.6406C932.942 21.3438 933.252 22.2878 933.252 23.4727C933.252 24.2604 933.05 25.0612 932.646 25.875C932.249 26.6823 931.696 27.5677 930.986 28.5312L927.744 32.9844H933.75V34Z" fill="black"/>
<line x1="927.5" y1="87" x2="927.5" y2="97" stroke="black"/>
<line x1="940.5" y1="87" x2="940.5" y2="97" stroke="black"/>
<line x1="953.5" y1="87" x2="953.5" y2="97" stroke="black"/>
<line x1="966.5" y1="87" x2="966.5" y2="97" stroke="black"/>
<line x1="979.5" y1="69" x2="979.5" y2="115" stroke="black"/>
<line x1="992.5" y1="87" x2="992.5" y2="97" stroke="black"/>
<line x1="1005.5" y1="87" x2="1005.5" y2="97" stroke="black"/>
<line x1="1018.5" y1="87" x2="1018.5" y2="97" stroke="black"/>
<line x1="1031.5" y1="87" x2="1031.5" y2="97" stroke="black"/>
<line x1="1049.5" y1="47" x2="1049.5" y2="139" stroke="black"/>
<path d="M1041.05 34.0586H1039.87V21.0508L1036.95 21.4512V20.6113L1041.05 19.752V34.0586ZM1053.69 28.4922C1053.69 30.3281 1053.36 31.7409 1052.71 32.7305C1052.05 33.7135 1051.16 34.2051 1050.01 34.2051C1048.86 34.2051 1047.95 33.7103 1047.29 32.7207C1046.63 31.7311 1046.3 30.3216 1046.3 28.4922V25.3086C1046.3 23.4857 1046.62 22.0762 1047.28 21.0801C1047.93 20.0775 1048.84 19.5762 1049.99 19.5762C1051.14 19.5762 1052.05 20.0742 1052.71 21.0703C1053.36 22.0664 1053.69 23.4792 1053.69 25.3086V28.4922ZM1052.52 25.1035C1052.52 23.6582 1052.3 22.5482 1051.87 21.7734C1051.44 20.9987 1050.81 20.6113 1049.99 20.6113C1049.18 20.6113 1048.55 21.002 1048.12 21.7832C1047.7 22.5579 1047.48 23.6647 1047.48 25.1035V28.6777C1047.48 30.11 1047.7 31.2201 1048.13 32.0078C1048.57 32.7956 1049.2 33.1895 1050.01 33.1895C1050.82 33.1895 1051.45 32.7988 1051.88 32.0176C1052.3 31.2298 1052.52 30.1165 1052.52 28.6777V25.1035ZM1062.4 29.4102H1064.17V30.4258H1062.4V34H1061.24V30.4258H1055.78V29.7324L1061.14 19.7812H1062.4V29.4102ZM1057.11 29.4102H1061.24V21.5488L1061.18 21.5391L1060.85 22.3984L1057.11 29.4102Z" fill="black"/>
<line x1="1057.5" y1="87" x2="1057.5" y2="97" stroke="black"/>
<line x1="1070.5" y1="87" x2="1070.5" y2="97" stroke="black"/>
<line x1="1083.5" y1="87" x2="1083.5" y2="97" stroke="black"/>
<line x1="1096.5" y1="87" x2="1096.5" y2="97" stroke="black"/>
<line x1="1109.5" y1="69" x2="1109.5" y2="115" stroke="black"/>
<line x1="1122.5" y1="87" x2="1122.5" y2="97" stroke="black"/>
<line x1="1135.5" y1="87" x2="1135.5" y2="97" stroke="black"/>
<line x1="1148.5" y1="87" x2="1148.5" y2="97" stroke="black"/>
<line x1="1161.5" y1="87" x2="1161.5" y2="97" stroke="black"/>
<line x1="1179.5" y1="47" x2="1179.5" y2="139" stroke="black"/>
<path d="M1171.05 34.0586H1169.87V21.0508L1166.95 21.4512V20.6113L1171.05 19.752V34.0586ZM1183.69 28.4922C1183.69 30.3281 1183.36 31.7409 1182.71 32.7305C1182.05 33.7135 1181.16 34.2051 1180.01 34.2051C1178.86 34.2051 1177.95 33.7103 1177.29 32.7207C1176.63 31.7311 1176.3 30.3216 1176.3 28.4922V25.3086C1176.3 23.4857 1176.62 22.0762 1177.28 21.0801C1177.93 20.0775 1178.84 19.5762 1179.99 19.5762C1181.14 19.5762 1182.05 20.0742 1182.71 21.0703C1183.36 22.0664 1183.69 23.4792 1183.69 25.3086V28.4922ZM1182.52 25.1035C1182.52 23.6582 1182.3 22.5482 1181.87 21.7734C1181.44 20.9987 1180.81 20.6113 1179.99 20.6113C1179.18 20.6113 1178.55 21.002 1178.12 21.7832C1177.7 22.5579 1177.48 23.6647 1177.48 25.1035V28.6777C1177.48 30.11 1177.7 31.2201 1178.13 32.0078C1178.57 32.7956 1179.2 33.1895 1180.01 33.1895C1180.82 33.1895 1181.45 32.7988 1181.88 32.0176C1182.3 31.2298 1182.52 30.1165 1182.52 28.6777V25.1035ZM1190.58 19.5762C1190.99 19.5762 1191.39 19.6315 1191.78 19.7422C1192.17 19.8529 1192.52 20.0124 1192.8 20.2207L1192.52 21.1973C1192.24 21.002 1191.95 20.8555 1191.65 20.7578C1191.35 20.6602 1190.99 20.6113 1190.58 20.6113C1189.71 20.6113 1189 21.0215 1188.44 21.8418C1187.88 22.6556 1187.61 23.7266 1187.61 25.0547V26.0898C1187.95 25.6341 1188.36 25.276 1188.84 25.0156C1189.33 24.7487 1189.86 24.6152 1190.43 24.6152C1191.48 24.6152 1192.32 25.0579 1192.94 25.9434C1193.56 26.8223 1193.87 27.9648 1193.87 29.3711C1193.87 30.7773 1193.53 31.9362 1192.87 32.8477C1192.21 33.7526 1191.34 34.2051 1190.26 34.2051C1189.16 34.2051 1188.25 33.7168 1187.53 32.7402C1186.81 31.7637 1186.44 30.4225 1186.44 28.7168V25.1719C1186.44 23.5182 1186.84 22.1738 1187.64 21.1387C1188.43 20.097 1189.41 19.5762 1190.58 19.5762ZM1190.19 25.5918C1189.57 25.5918 1189.03 25.7741 1188.57 26.1387C1188.12 26.4967 1187.8 26.9688 1187.61 27.5547V28.8047C1187.61 30.1589 1187.86 31.2298 1188.36 32.0176C1188.86 32.8053 1189.5 33.1992 1190.26 33.1992C1191.01 33.1992 1191.59 32.8281 1192.03 32.0859C1192.47 31.3438 1192.69 30.4388 1192.69 29.3711C1192.69 28.2448 1192.47 27.3333 1192.03 26.6367C1191.59 25.9401 1190.98 25.5918 1190.19 25.5918Z" fill="black"/>
<line x1="1187.5" y1="87" x2="1187.5" y2="97" stroke="black"/>
<line x1="1200.5" y1="87" x2="1200.5" y2="97" stroke="black"/>
<line x1="1213.5" y1="87" x2="1213.5" y2="97" stroke="black"/>
<line x1="1226.5" y1="87" x2="1226.5" y2="97" stroke="black"/>
<line x1="1239.5" y1="69" x2="1239.5" y2="115" stroke="black"/>
<line x1="1252.5" y1="87" x2="1252.5" y2="97" stroke="black"/>
<line x1="1265.5" y1="87" x2="1265.5" y2="97" stroke="black"/>
<line x1="1278.5" y1="87" x2="1278.5" y2="97" stroke="black"/>
<line x1="1291.5" y1="87" x2="1291.5" y2="97" stroke="black"/>
<line x1="1309.5" y1="47" x2="1309.5" y2="139" stroke="black"/>
<path d="M1301.05 34.0586H1299.87V21.0508L1296.95 21.4512V20.6113L1301.05 19.752V34.0586ZM1313.69 28.4922C1313.69 30.3281 1313.36 31.7409 1312.71 32.7305C1312.05 33.7135 1311.16 34.2051 1310.01 34.2051C1308.86 34.2051 1307.95 33.7103 1307.29 32.7207C1306.63 31.7311 1306.3 30.3216 1306.3 28.4922V25.3086C1306.3 23.4857 1306.62 22.0762 1307.28 21.0801C1307.93 20.0775 1308.84 19.5762 1309.99 19.5762C1311.14 19.5762 1312.05 20.0742 1312.71 21.0703C1313.36 22.0664 1313.69 23.4792 1313.69 25.3086V28.4922ZM1312.52 25.1035C1312.52 23.6582 1312.3 22.5482 1311.87 21.7734C1311.44 20.9987 1310.81 20.6113 1309.99 20.6113C1309.18 20.6113 1308.55 21.002 1308.12 21.7832C1307.7 22.5579 1307.48 23.6647 1307.48 25.1035V28.6777C1307.48 30.11 1307.7 31.2201 1308.13 32.0078C1308.57 32.7956 1309.2 33.1895 1310.01 33.1895C1310.82 33.1895 1311.45 32.7988 1311.88 32.0176C1312.3 31.2298 1312.52 30.1165 1312.52 28.6777V25.1035ZM1323.37 23.4434C1323.37 24.2181 1323.18 24.8952 1322.8 25.4746C1322.43 26.0475 1321.93 26.4609 1321.31 26.7148C1322.02 26.9883 1322.6 27.4375 1323.03 28.0625C1323.46 28.681 1323.68 29.4036 1323.68 30.2305C1323.68 31.513 1323.33 32.4961 1322.63 33.1797C1321.92 33.8633 1321.01 34.2051 1319.89 34.2051C1318.75 34.2051 1317.83 33.8633 1317.13 33.1797C1316.43 32.4961 1316.07 31.513 1316.07 30.2305C1316.07 29.3971 1316.29 28.6712 1316.71 28.0527C1317.14 27.4277 1317.71 26.9818 1318.44 26.7148C1317.81 26.4544 1317.31 26.0378 1316.94 25.4648C1316.58 24.8919 1316.41 24.2181 1316.41 23.4434C1316.41 22.2194 1316.72 21.2689 1317.36 20.5918C1318.01 19.9147 1318.84 19.5762 1319.87 19.5762C1320.89 19.5762 1321.72 19.918 1322.38 20.6016C1323.04 21.2786 1323.37 22.2259 1323.37 23.4434ZM1322.51 30.2305C1322.51 29.3385 1322.26 28.6159 1321.76 28.0625C1321.26 27.5026 1320.63 27.2227 1319.87 27.2227C1319.1 27.2227 1318.48 27.5026 1317.99 28.0625C1317.5 28.6159 1317.26 29.3385 1317.26 30.2305C1317.26 31.1549 1317.5 31.8809 1317.98 32.4082C1318.46 32.929 1319.1 33.1895 1319.89 33.1895C1320.65 33.1895 1321.28 32.929 1321.77 32.4082C1322.26 31.8809 1322.51 31.1549 1322.51 30.2305ZM1322.18 23.4434C1322.18 22.623 1321.96 21.946 1321.51 21.4121C1321.08 20.8783 1320.53 20.6113 1319.87 20.6113C1319.2 20.6113 1318.65 20.8685 1318.22 21.3828C1317.8 21.8971 1317.59 22.584 1317.59 23.4434C1317.59 24.2832 1317.8 24.9538 1318.22 25.4551C1318.65 25.9499 1319.21 26.1973 1319.89 26.1973C1320.56 26.1973 1321.1 25.9466 1321.53 25.4453C1321.96 24.944 1322.18 24.2767 1322.18 23.4434Z" fill="black"/>
<line x1="1322.5" y1="87" x2="1322.5" y2="97" stroke="black"/>
<line x1="1335.5" y1="87" x2="1335.5" y2="97" stroke="black"/>
<line x1="1348.5" y1="87" x2="1348.5" y2="97" stroke="black"/>
<line x1="1361.5" y1="87" x2="1361.5" y2="97" stroke="black"/>
<line x1="1374.5" y1="69" x2="1374.5" y2="115" stroke="black"/>
<line x1="1387.5" y1="87" x2="1387.5" y2="97" stroke="black"/>
<line x1="1400.5" y1="87" x2="1400.5" y2="97" stroke="black"/>
<line x1="1413.5" y1="87" x2="1413.5" y2="97" stroke="black"/>
<line x1="1426.5" y1="87" x2="1426.5" y2="97" stroke="black"/>
<line x1="1439.5" y1="47" x2="1439.5" y2="139" stroke="black"/>
<path d="M780.977 34.0586H779.805V21.0508L776.885 21.4512V20.6113L780.977 19.752V34.0586Z" fill="black" transform="translate(650, 0)"/>
<path d="M780.977 34.0586H779.805V21.0508L776.885 21.4512V20.6113L780.977 19.752V34.0586Z" fill="black" transform="translate(659.345, 0)"/>
<path d="M793.623 28.4922C793.623 30.3281 793.294 31.7409 792.637 32.7305C791.986 33.7135 791.087 34.2051 789.941 34.2051C788.789 34.2051 787.881 33.7103 787.217 32.7207C786.559 31.7311 786.23 30.3216 786.23 28.4922V25.3086C786.23 23.4857 786.556 22.0762 787.207 21.0801C787.865 20.0775 788.77 19.5762 789.922 19.5762C791.074 19.5762 791.979 20.0742 792.637 21.0703C793.294 22.0664 793.623 23.4792 793.623 25.3086V28.4922ZM792.451 25.1035C792.451 23.6582 792.233 22.5482 791.797 21.7734C791.367 20.9987 790.742 20.6113 789.922 20.6113C789.108 20.6113 788.486 21.002 788.057 21.7832C787.627 22.5579 787.412 23.6647 787.412 25.1035V28.6777C787.412 30.11 787.63 31.2201 788.066 32.0078C788.503 32.7956 789.128 33.1895 789.941 33.1895C790.755 33.1895 791.377 32.7988 791.807 32.0176C792.236 31.2298 792.451 30.1165 792.451 28.6777V25.1035Z" fill="black" transform="translate(659.951, 0)"/>
<line x1="1452.5" y1="87" x2="1452.5" y2="97" stroke="black"/>
<line x1="1465.5" y1="87" x2="1465.5" y2="97" stroke="black"/>
<line x1="1478.5" y1="87" x2="1478.5" y2="97" stroke="black"/>
<line x1="1491.5" y1="87" x2="1491.5" y2="97" stroke="black"/>
<line x1="1504.5" y1="69" x2="1504.5" y2="115" stroke="black"/>
<line x1="1517.5" y1="87" x2="1517.5" y2="97" stroke="black"/>
<line x1="1530.5" y1="87" x2="1530.5" y2="97" stroke="black"/>
<line x1="1543.5" y1="87" x2="1543.5" y2="97" stroke="black"/>
<line x1="1556.5" y1="87" x2="1556.5" y2="97" stroke="black"/>
<line x1="1569.5" y1="47" x2="1569.5" y2="139" stroke="black"/>
<path d="M780.977 34.0586H779.805V21.0508L776.885 21.4512V20.6113L780.977 19.752V34.0586Z" fill="black" transform="translate(780, 0)"/>
<path d="M780.977 34.0586H779.805V21.0508L776.885 21.4512V20.6113L780.977 19.752V34.0586Z" fill="black" transform="translate(789.345, 0)"/>
<path d="M278.774 34H271.343V33.082L275.2 27.8086C275.903 26.8451 276.395 26.041 276.675 25.3965C276.961 24.7454 277.104 24.1172 277.104 23.5117C277.104 22.6393 276.906 21.9395 276.509 21.4121C276.118 20.8783 275.578 20.6113 274.887 20.6113C274.022 20.6113 273.367 20.9076 272.925 21.5C272.488 22.0859 272.27 22.8802 272.27 23.8828H271.167L271.147 23.834C271.121 22.6361 271.443 21.627 272.114 20.8066C272.791 19.9863 273.716 19.5762 274.887 19.5762C275.916 19.5762 276.736 19.931 277.348 20.6406C277.967 21.3438 278.276 22.2878 278.276 23.4727C278.276 24.2604 278.074 25.0612 277.671 25.875C277.274 26.6823 276.72 27.5677 276.011 28.5312L272.768 32.9844H278.774V34Z" fill="black" transform="translate(1305.06, 0)"/>
<line x1="1582.5" y1="87" x2="1582.5" y2="97" stroke="black"/>
<line x1="1595.5" y1="87" x2="1595.5" y2="97" stroke="black"/>
<line x1="1608.5" y1="87" x2="1608.5" y2="97" stroke="black"/>
<line x1="1621.5" y1="87" x2="1621.5" y2="97" stroke="black"/>
<line x1="1634.5" y1="69" x2="1634.5" y2="115" stroke="black"/>
<line x1="1647.5" y1="87" x2="1647.5" y2="97" stroke="black"/>
<line x1="1660.5" y1="87" x2="1660.5" y2="97" stroke="black"/>
<line x1="1673.5" y1="87" x2="1673.5" y2="97" stroke="black"/>
<line x1="1686.5" y1="87" x2="1686.5" y2="97" stroke="black"/>
<line x1="1699.5" y1="47" x2="1699.5" y2="139" stroke="black"/>
<path d="M780.977 34.0586H779.805V21.0508L776.885 21.4512V20.6113L780.977 19.752V34.0586Z" fill="black" transform="translate(910, 0)"/>
<path d="M780.977 34.0586H779.805V21.0508L776.885 21.4512V20.6113L780.977 19.752V34.0586Z" fill="black" transform="translate(919.345, 0)"/>
<path d="M407.427 29.4102H409.194V30.4258H407.427V34H406.264V30.4258H400.805V29.7324L406.167 19.7812H407.427V29.4102ZM402.134 29.4102H406.264V21.5488L406.206 21.5391L405.874 22.3984L402.134 29.4102Z" fill="black" transform="translate(1305.376, 0)"/>
<line x1="1712.5" y1="87" x2="1712.5" y2="97" stroke="black"/>
<line x1="1725.5" y1="87" x2="1725.5" y2="97" stroke="black"/>
<line x1="1738.5" y1="87" x2="1738.5" y2="97" stroke="black"/>
<line x1="1751.5" y1="87" x2="1751.5" y2="97" stroke="black"/>
<line x1="1764.5" y1="69" x2="1764.5" y2="115" stroke="black"/>
<line x1="1777.5" y1="87" x2="1777.5" y2="97" stroke="black"/>
<line x1="1790.5" y1="87" x2="1790.5" y2="97" stroke="black"/>
<line x1="1803.5" y1="87" x2="1803.5" y2="97" stroke="black"/>
<line x1="1816.5" y1="87" x2="1816.5" y2="97" stroke="black"/>
<line x1="1829.5" y1="47" x2="1829.5" y2="139" stroke="black"/>
<path d="M780.977 34.0586H779.805V21.0508L776.885 21.4512V20.6113L780.977 19.752V34.0586Z" fill="black" transform="translate(1040, 0)"/>
<path d="M780.977 34.0586H779.805V21.0508L776.885 21.4512V20.6113L780.977 19.752V34.0586Z" fill="black" transform="translate(1049.345, 0)"/>
<path d="M535.6 19.5762C536.011 19.5762 536.411 19.6315 536.802 19.7422C537.199 19.8529 537.54 20.0124 537.827 20.2207L537.544 21.1973C537.264 21.002 536.974 20.8555 536.675 20.7578C536.375 20.6602 536.017 20.6113 535.6 20.6113C534.735 20.6113 534.022 21.0215 533.462 21.8418C532.908 22.6556 532.632 23.7266 532.632 25.0547V26.0898C532.97 25.6341 533.38 25.276 533.862 25.0156C534.35 24.7487 534.881 24.6152 535.454 24.6152C536.509 24.6152 537.345 25.0579 537.964 25.9434C538.582 26.8223 538.891 27.9648 538.891 29.3711C538.891 30.7773 538.559 31.9362 537.895 32.8477C537.231 33.7526 536.362 34.2051 535.288 34.2051C534.188 34.2051 533.276 33.7168 532.554 32.7402C531.831 31.7637 531.47 30.4225 531.47 28.7168V25.1719C531.47 23.5182 531.867 22.1738 532.661 21.1387C533.455 20.097 534.435 19.5762 535.6 19.5762ZM535.21 25.5918C534.591 25.5918 534.054 25.7741 533.598 26.1387C533.149 26.4967 532.827 26.9688 532.632 27.5547V28.8047C532.632 30.1589 532.882 31.2298 533.384 32.0176C533.885 32.8053 534.52 33.1992 535.288 33.1992C536.03 33.1992 536.619 32.8281 537.055 32.0859C537.492 31.3438 537.71 30.4388 537.71 29.3711C537.71 28.2448 537.492 27.3333 537.055 26.6367C536.619 25.9401 536.004 25.5918 535.21 25.5918Z" fill="black" transform="translate(1304.711, 0)"/>
<line x1="1842.5" y1="87" x2="1842.5" y2="97" stroke="black"/>
<line x1="1855.5" y1="87" x2="1855.5" y2="97" stroke="black"/>
<line x1="1868.5" y1="87" x2="1868.5" y2="97" stroke="black"/>
<line x1="1881.5" y1="87" x2="1881.5" y2="97" stroke="black"/>
<line x1="1894.5" y1="69" x2="1894.5" y2="115" stroke="black"/>
<line x1="1907.5" y1="87" x2="1907.5" y2="97" stroke="black"/>
<line x1="1920.5" y1="87" x2="1920.5" y2="97" stroke="black"/>
<line x1="1933.5" y1="87" x2="1933.5" y2="97" stroke="black"/>
<line x1="1946.5" y1="87" x2="1946.5" y2="97" stroke="black"/>
<line x1="1959.5" y1="47" x2="1959.5" y2="139" stroke="black"/>
<path d="M780.977 34.0586H779.805V21.0508L776.885 21.4512V20.6113L780.977 19.752V34.0586Z" fill="black" transform="translate(1170, 0)"/>
<path d="M780.977 34.0586H779.805V21.0508L776.885 21.4512V20.6113L780.977 19.752V34.0586Z" fill="black" transform="translate(1179.345, 0)"/>
<path d="M18.3934 23.4434C18.3934 24.2181 18.2046 24.8952 17.827 25.4746C17.4559 26.0475 16.9578 26.4609 16.3328 26.7148C17.049 26.9883 17.6219 27.4375 18.0516 28.0625C18.4878 28.681 18.7059 29.4036 18.7059 30.2305C18.7059 31.513 18.3543 32.4961 17.6512 33.1797C16.948 33.8633 16.0366 34.2051 14.9168 34.2051C13.7775 34.2051 12.8562 33.8633 12.1531 33.1797C11.45 32.4961 11.0984 31.513 11.0984 30.2305C11.0984 29.3971 11.31 28.6712 11.7332 28.0527C12.1629 27.4277 12.7391 26.9818 13.4617 26.7148C12.8302 26.4544 12.3322 26.0378 11.9676 25.4648C11.6095 24.8919 11.4305 24.2181 11.4305 23.4434C11.4305 22.2194 11.7495 21.2689 12.3875 20.5918C13.032 19.9147 13.8686 19.5762 14.8973 19.5762C15.9129 19.5762 16.7495 19.918 17.407 20.6016C18.0646 21.2786 18.3934 22.2259 18.3934 23.4434ZM17.534 30.2305C17.534 29.3385 17.2833 28.6159 16.782 28.0625C16.2807 27.5026 15.6525 27.2227 14.8973 27.2227C14.129 27.2227 13.5008 27.5026 13.0125 28.0625C12.5242 28.6159 12.2801 29.3385 12.2801 30.2305C12.2801 31.1549 12.521 31.8809 13.0027 32.4082C13.4845 32.929 14.1225 33.1895 14.9168 33.1895C15.6785 33.1895 16.3035 32.929 16.7918 32.4082C17.2866 31.8809 17.534 31.1549 17.534 30.2305ZM17.202 23.4434C17.202 22.623 16.9806 21.946 16.5379 21.4121C16.1017 20.8783 15.5548 20.6113 14.8973 20.6113C14.2202 20.6113 13.6701 20.8685 13.2469 21.3828C12.8237 21.8971 12.6121 22.584 12.6121 23.4434C12.6121 24.2832 12.8237 24.9538 13.2469 25.4551C13.6766 25.9499 14.2332 26.1973 14.9168 26.1973C15.5809 26.1973 16.1277 25.9466 16.5574 25.4453C16.9871 24.944 17.202 24.2767 17.202 23.4434Z" fill="black" transform="translate(1955.0826, 0)"/>
<line x1="1972.5" y1="87" x2="1972.5" y2="97" stroke="black"/>
<line x1="1985.5" y1="87" x2="1985.5" y2="97" stroke="black"/>
<line x1="1998.5" y1="87" x2="1998.5" y2="97" stroke="black"/>
<line x1="2011.5" y1="87" x2="2011.5" y2="97" stroke="black"/>
<line x1="2024.5" y1="69" x2="2024.5" y2="115" stroke="black"/>
<line x1="2037.5" y1="87" x2="2037.5" y2="97" stroke="black"/>
<line x1="2050.5" y1="87" x2="2050.5" y2="97" stroke="black"/>
<line x1="2063.5" y1="87" x2="2063.5" y2="97" stroke="black"/>
<line x1="2076.5" y1="87" x2="2076.5" y2="97" stroke="black"/>
<line x1="2089.5" y1="47" x2="2089.5" y2="139" stroke="black"/>
<path d="M780.977 34.0586H779.805V21.0508L776.885 21.4512V20.6113L780.977 19.752V34.0586Z" fill="black" transform="translate(1300.0000000000002, 0)"/>
<path d="M278.774 34H271.343V33.082L275.2 27.8086C275.903 26.8451 276.395 26.041 276.675 25.3965C276.961 24.7454 277.104 24.1172 277.104 23.5117C277.104 22.6393 276.906 21.9395 276.509 21.4121C276.118 20.8783 275.578 20.6113 274.887 20.6113C274.022 20.6113 273.367 20.9076 272.925 21.5C272.488 22.0859 272.27 22.8802 272.27 23.8828H271.167L271.147 23.834C271.121 22.6361 271.443 21.627 272.114 20.8066C272.791 19.9863 273.716 19.5762 274.887 19.5762C275.916 19.5762 276.736 19.931 277.348 20.6406C277.967 21.3438 278.276 22.2878 278.276 23.4727C278.276 24.2604 278.074 25.0612 277.671 25.875C277.274 26.6823 276.72 27.5677 276.011 28.5312L272.768 32.9844H278.774V34Z" fill="black" transform="translate(1815.109, 0)"/>
<path d="M793.623 28.4922C793.623 30.3281 793.294 31.7409 792.637 32.7305C791.986 33.7135 791.087 34.2051 789.941 34.2051C788.789 34.2051 787.881 33.7103 787.217 32.7207C786.559 31.7311 786.23 30.3216 786.23 28.4922V25.3086C786.23 23.4857 786.556 22.0762 787.207 21.0801C787.865 20.0775 788.77 19.5762 789.922 19.5762C791.074 19.5762 791.979 20.0742 792.637 21.0703C793.294 22.0664 793.623 23.4792 793.623 25.3086V28.4922ZM792.451 25.1035C792.451 23.6582 792.233 22.5482 791.797 21.7734C791.367 20.9987 790.742 20.6113 789.922 20.6113C789.108 20.6113 788.486 21.002 788.057 21.7832C787.627 22.5579 787.412 23.6647 787.412 25.1035V28.6777C787.412 30.11 787.63 31.2201 788.066 32.0078C788.503 32.7956 789.128 33.1895 789.941 33.1895C790.755 33.1895 791.377 32.7988 791.807 32.0176C792.236 31.2298 792.451 30.1165 792.451 28.6777V25.1035Z" fill="black" transform="translate(1309.951, 0)"/>
<line x1="2102.5" y1="87" x2="2102.5" y2="97" stroke="black"/>
<line x1="2115.5" y1="87" x2="2115.5" y2="97" stroke="black"/>
<line x1="2128.5" y1="87" x2="2128.5" y2="97" stroke="black"/>
<line x1="2141.5" y1="87" x2="2141.5" y2="97" stroke="black"/>
<line x1="2154.5" y1="69" x2="2154.5" y2="115" stroke="black"/>
<line x1="2167.5" y1="87" x2="2167.5" y2="97" stroke="black"/>
</svg>
